<svg width="28.000000" height="28.000000" viewBox="0 0 28 28" fill="none" xmlns="http://www.w3.org/2000/svg" xmlns:xlink="http://www.w3.org/1999/xlink">
	<desc>
			Created with Pixso.
	</desc>
	<defs>
		<clipPath id="clip6_299">
			<rect id="facebook (5) 1" width="28.333288" height="28.000000" transform="translate(-0.333313 0.000000)" fill="white" fill-opacity="0"/>
		</clipPath>
	</defs>
	<rect id="facebook (5) 1" width="28.333288" height="28.000000" transform="translate(-0.333313 0.000000)" fill="#FFFFFF" fill-opacity="0"/>
	<g clip-path="url(#clip6_299)">
		<path id="Vector" d="M3.81 28L13.05 28L13.05 18.04L9.73 18.04L9.73 14.76L13.05 14.76L13.05 10.66C13.05 8.4 14.92 6.56 17.2 6.56L21.35 6.56L21.35 9.84L18.03 9.84C17.12 9.84 16.37 10.57 16.37 11.48L16.37 14.76L21.2 14.76L20.65 18.04L16.37 18.04L16.37 28L23.84 28C26.13 28 28 26.16 28 23.89L28 4.1C28 1.83 26.13 0 23.84 0L3.81 0C1.52 0 -0.34 1.83 -0.34 4.1L-0.34 23.89C-0.34 26.16 1.52 28 3.81 28ZM1.32 4.1C1.32 2.74 2.44 1.64 3.81 1.64L23.84 1.64C25.22 1.64 26.33 2.74 26.33 4.1L26.33 23.89C26.33 25.25 25.22 26.35 23.84 26.35L18.03 26.35L18.03 19.68L22.06 19.68L23.16 13.12L18.03 13.12L18.03 11.48L23.01 11.48L23.01 4.92L17.2 4.92C14 4.92 11.39 7.49 11.39 10.66L11.39 13.12L8.07 13.12L8.07 19.68L11.39 19.68L11.39 26.35L3.81 26.35C2.44 26.35 1.32 25.25 1.32 23.89L1.32 4.1Z" fill="#FFFFFF" fill-opacity="1.000000" fill-rule="nonzero"/>
	</g>
</svg>
