<svg width="29.000000" height="28.000000" viewBox="0 0 29 28" fill="none" xmlns="http://www.w3.org/2000/svg" xmlns:xlink="http://www.w3.org/1999/xlink">
	<desc>
			Created with Pixso.
	</desc>
	<defs/>
	<path id="Vector" d="M5.6 28L22.72 28C25.81 28 28.33 25.51 28.33 22.45L28.33 5.54C28.33 2.48 25.81 0 22.72 0L5.6 0C2.51 0 0 2.48 0 5.54L0 22.45C0 25.51 2.51 28 5.6 28ZM1.77 5.54C1.77 3.45 3.49 1.75 5.6 1.75L22.72 1.75C24.84 1.75 26.56 3.45 26.56 5.54L26.56 22.45C26.56 24.54 24.84 26.25 22.72 26.25L5.6 26.25C3.49 26.25 1.77 24.54 1.77 22.45L1.77 5.54Z" fill="#FFFFFF" fill-opacity="1.000000" fill-rule="nonzero"/>
	<path id="Vector" d="M14.16 21.15C18.15 21.15 21.4 17.94 21.4 14C21.4 10.05 18.15 6.84 14.16 6.84C10.17 6.84 6.93 10.05 6.93 14C6.93 17.94 10.17 21.15 14.16 21.15ZM14.16 8.59C17.18 8.59 19.63 11.02 19.63 14C19.63 16.97 17.18 19.4 14.16 19.4C11.15 19.4 8.7 16.97 8.7 14C8.7 11.02 11.15 8.59 14.16 8.59Z" fill="#FFFFFF" fill-opacity="1.000000" fill-rule="nonzero"/>
	<path id="Vector" d="M21.67 8.58C22.83 8.58 23.71 7.72 23.71 6.58C23.71 5.38 22.79 4.57 21.67 4.57C20.51 4.57 19.63 5.43 19.63 6.58C19.63 7.77 20.55 8.58 21.67 8.58ZM21.88 6.38C22.25 6.71 21.4 7.1 21.4 6.58C21.4 6.26 21.83 6.34 21.88 6.38Z" fill="#FFFFFF" fill-opacity="1.000000" fill-rule="nonzero"/>
</svg>
