<svg width="24.000000" height="24.000000" viewBox="0 0 24 24" fill="none" xmlns="http://www.w3.org/2000/svg" xmlns:xlink="http://www.w3.org/1999/xlink">
	<desc>
			Created with Pixso.
	</desc>
	<defs/>
	<path id="Vector" d="M12 0C5.37 0 0 5.37 0 12C0 18.62 5.37 24 12 24C18.62 24 24 18.62 24 12C24 5.37 18.62 0 12 0ZM19.17 7.02L19.19 7.03L12.49 13.72C12.27 13.95 11.88 13.95 11.65 13.72L4.95 7.02L19.17 7.02ZM4.48 7.47C4.48 7.47 4.49 7.46 4.49 7.46L9.04 12.01L4.48 16.57L4.48 7.47ZM4.93 17.09C4.91 17.09 4.89 17.08 4.87 17.08L9.49 12.47L11.2 14.17C11.43 14.41 11.74 14.53 12.07 14.53C12.4 14.53 12.71 14.41 12.94 14.17L14.6 12.52L19.17 17.09L4.93 17.09ZM19.62 16.64L15.05 12.07L19.62 7.5L19.62 16.64Z" fill="#FFFFFF" fill-opacity="1.000000" fill-rule="nonzero"/>
</svg>
